<svg width="1440" height="920" viewBox="0 0 1440 920" fill="none" xmlns="http://www.w3.org/2000/svg">
  <rect width="1440" height="920" fill="#F7FAFC"/>

  <rect x="0" y="0" width="1440" height="920" fill="#F7FAFC"/>

  <section>
    <rect x="96" y="80" width="1248" height="760" rx="32" fill="#FFFFFF"/>
    <rect x="96" y="80" width="1248" height="760" rx="32" stroke="#E2E8F0" stroke-width="2"/>
  </section>

  <g opacity="0.9">
    <circle cx="1234" cy="164" r="62" fill="#14B8A6" fill-opacity="0.12"/>
    <circle cx="204" cy="732" r="76" fill="#2563EB" fill-opacity="0.08"/>
  </g>

  <text x="150" y="166" fill="#0F766E" font-family="Inter, Arial, sans-serif" font-size="16" font-weight="800" letter-spacing="4">GUIA TURISTICA</text>
  <text x="150" y="226" fill="#0F172A" font-family="Inter, Arial, sans-serif" font-size="54" font-weight="850">Explora Panama</text>
  <text x="150" y="286" fill="#0F172A" font-family="Inter, Arial, sans-serif" font-size="54" font-weight="850">por provincia</text>

  <text x="150" y="344" fill="#475569" font-family="Inter, Arial, sans-serif" font-size="21" font-weight="500">
    <tspan x="150" dy="0">Descubre destinos, actividades, gastronomia y lugares</tspan>
    <tspan x="150" dy="32">destacados desde un mapa interactivo de Panama.</tspan>
  </text>

  <g>
    <rect x="150" y="430" width="134" height="44" rx="22" fill="#ECFEFF"/>
    <text x="184" y="458" fill="#0F766E" font-family="Inter, Arial, sans-serif" font-size="16" font-weight="700">Playas</text>

    <rect x="300" y="430" width="138" height="44" rx="22" fill="#EFF6FF"/>
    <text x="330" y="458" fill="#1D4ED8" font-family="Inter, Arial, sans-serif" font-size="16" font-weight="700">Historia</text>

    <rect x="454" y="430" width="142" height="44" rx="22" fill="#F0FDF4"/>
    <text x="484" y="458" fill="#15803D" font-family="Inter, Arial, sans-serif" font-size="16" font-weight="700">Aventura</text>

    <rect x="150" y="490" width="150" height="44" rx="22" fill="#FFF7ED"/>
    <text x="180" y="518" fill="#C2410C" font-family="Inter, Arial, sans-serif" font-size="16" font-weight="700">Cultura</text>

    <rect x="316" y="490" width="178" height="44" rx="22" fill="#F8FAFC"/>
    <text x="346" y="518" fill="#334155" font-family="Inter, Arial, sans-serif" font-size="16" font-weight="700">Gastronomia</text>
  </g>

  <g>
    <rect x="150" y="606" width="190" height="58" rx="14" fill="#0F766E"/>
    <text x="191" y="642" fill="#FFFFFF" font-family="Inter, Arial, sans-serif" font-size="17" font-weight="800">Ver provincias</text>

    <rect x="360" y="606" width="194" height="58" rx="14" fill="#FFFFFF"/>
    <rect x="360" y="606" width="194" height="58" rx="14" stroke="#CBD5E1" stroke-width="2"/>
    <text x="399" y="642" fill="#0F172A" font-family="Inter, Arial, sans-serif" font-size="17" font-weight="800">Como funciona</text>
  </g>

  <g>
    <rect x="706" y="150" width="558" height="620" rx="30" fill="#092F2D"/>
    <rect x="730" y="174" width="510" height="572" rx="24" fill="#0B3B38"/>

    <path d="M947 246 C1018 224 1084 246 1112 304 C1144 372 1085 434 1120 500 C1147 552 1204 560 1190 624 C1176 689 1086 716 1004 693 C930 672 910 614 841 612 C781 611 744 576 758 520 C774 458 832 468 854 410 C877 350 882 267 947 246Z" fill="#38BDF8" fill-opacity="0.20"/>
    <path d="M946 282 C998 264 1052 285 1074 328 C1097 374 1044 432 1078 486 C1102 525 1155 540 1139 587 C1123 636 1049 657 992 640 C931 622 912 576 858 574 C816 572 793 547 806 507 C820 462 862 459 880 412 C898 364 898 301 946 282Z" fill="#2DD4BF" fill-opacity="0.72"/>

    <circle cx="904" cy="366" r="12" fill="#F97316"/>
    <circle cx="1048" cy="440" r="12" fill="#F97316"/>
    <circle cx="984" cy="560" r="12" fill="#F97316"/>
    <circle cx="866" cy="522" r="12" fill="#F97316"/>

    <rect x="760" y="642" width="142" height="70" rx="18" fill="#FFFFFF" fill-opacity="0.95"/>
    <text x="784" y="670" fill="#0F172A" font-family="Inter, Arial, sans-serif" font-size="15" font-weight="800">Colon</text>
    <text x="784" y="694" fill="#64748B" font-family="Inter, Arial, sans-serif" font-size="13" font-weight="600">Caribe e historia</text>

    <rect x="920" y="642" width="150" height="70" rx="18" fill="#FFFFFF" fill-opacity="0.95"/>
    <text x="944" y="670" fill="#0F172A" font-family="Inter, Arial, sans-serif" font-size="15" font-weight="800">Chiriqui</text>
    <text x="944" y="694" fill="#64748B" font-family="Inter, Arial, sans-serif" font-size="13" font-weight="600">Montana y cafe</text>

    <rect x="1088" y="642" width="124" height="70" rx="18" fill="#FFFFFF" fill-opacity="0.95"/>
    <text x="1112" y="670" fill="#0F172A" font-family="Inter, Arial, sans-serif" font-size="15" font-weight="800">Bocas</text>
    <text x="1112" y="694" fill="#64748B" font-family="Inter, Arial, sans-serif" font-size="13" font-weight="600">Islas y mar</text>
  </g>
</svg>
