<svg xmlns="http://www.w3.org/2000/svg" viewBox="0 0 682.52 282.43"><g id="a6531aa0-ad02-4cdc-9e5e-310e936180a3" data-name="mapa , b.t"><path d="M39.48,197c2.22-1.43,4.42-2.89,6.66-4.29,2.76-1.74,5.4-3.8,8.38-5.05,5.62-2.37,8.43-6,8.79-12.15.52-9-1.12-17.25-8-23.78-2.45-2.32-2.52-4.54.72-6.44,1-.6,2.42-1.89,2.34-2.74-.42-4.41,3-5,5.73-6.27,3.4-1.63,6.78-3.32,10.23-4.85a7.43,7.43,0,0,1,3-.38c2.16,0,4.32.29,6.48.23,4.77-.12,9.6-1.45,13.4,3.4,1.12,1.42,4.47.92,6.62,1.75,5.58,2.17,10.94,4.93,16.61,6.8A71.38,71.38,0,0,0,135,146.29c4.91.51,7.09,1.58,6.57,6.45-.88,8.33.25,16.89-3.17,25-2.14,5.08.13,7.48,5.66,6.77,8.81-1.13,8.81-1.13,12.18,7.88a10.1,10.1,0,0,0,11.26,6.31c5.38-.92,10.53-1.3,14.24,4.31,1.06,1.61,3.92,2.47,6.09,2.82,4.12.66,7.74-3,12.3-1.64,1,.31,3.25-2.44,4.47-4.11s1.39-4,2.71-5.41,3.43-1.84,5.2-2.72c.58,1.51,1.24,3,1.73,4.52,2.64,8.15-1.13,14.13-6.32,20-2.3,2.59-3.6,6.17-4.93,9.47-1,2.56-1.4,5.38-2.91,8.33.94-10-7.73-14.56-11-22.1l-1.42-.1c-.26,1.58-.56,3.15-.78,4.74-.12.86.11,2.38-.19,2.48a4.4,4.4,0,0,1-2.93-.07c-5.13-2.31-10.19-4.75-15.61-7.3.37-1.08.9-2.63,1.52-4.47-.92-.13-1.68-.48-2.06-.24-6.56,4.05-13.13,3.35-19.95.6-1-.41-2.8,1.28-4.31,1.72-1.77.52-3.63.75-6.76,1.35.3-5.43.57-10.35.89-16.34-3.41-2.59-5.28,1.74-8,4.43-.67-1.75-1.18-3.11-1.66-4.37l-8.77.95-5.93,5.63c-1.15-3.54-2-6-3.26-10L102.3,202c-2.34-.57-5.65-.91-8.57-2.15-7.82-3.32-15.51-4.54-23.88-1.74-11.31,3.79-14.16,7-15.12,19.27-1.94-8.73-6.55-15-15.25-17.57Z" transform="translate(-39.48 -45.1)"/><path d="M567.86,79.79a45.59,45.59,0,0,1,6,2.36,13.42,13.42,0,0,1,3.8,3.33c1.12,1.38,1.6,4.09,2.82,4.4,3.1.8,6.46.65,9.72.71.89,0,1.79-.52,3.29-1,1.85,9.58,9.48,6.85,15.77,7.14-1.27,5.6-.76,6.36,4.93,7.57,7.27,1.56,8,2.93,4.78,9.26a4.32,4.32,0,0,0-.69,1.74c0,6.23-2.28,10.84-8.43,13.14-2.34.87-4.44,2.58-6.83,3.1-4.51,1-8.49,2.38-10.31,7.45-4.32-3.86-8.7-5.28-14.1-3.2-3.77,1.45-5,3.62-3.69,7.24,2.92,7.9.34,15.32-1.32,22.08-3.21-3-6.44-6.06-9.72-9.06a2.41,2.41,0,0,0-1.7-.67c-5.2.9-5.88-1.17-3.74-5.39a3.64,3.64,0,0,0,.17-2.76,28.36,28.36,0,0,0-2.57-4c-.6,1.26-1.2,2.52-1.81,3.77-.37.78-.76,1.55-1.15,2.32-5.49-2.77-10.81-5-12.5-11.68-.49-1.91-3.46-3.19-5.82-5.2L533,139.28c-1.93-2.42-3.16-4-4.42-5.53-1.69-2.08-3-4.9-5.2-6.09a157.2,157.2,0,0,0-16.76-7.48c-2.57-1-4.05-2.18-3.21-5.2a9.7,9.7,0,0,0,.06-3.76c-.39-2.88.9-4.12,3.57-5.12,3.42-1.29,7.7-1.94,7.93-8-4.44,2-8.89,4-13.32,6.05-1,.46-1.91,1.07-2.9,1.52-3.09,1.37-3.92,2.9-1,5.51.83.73.91,2.73.67,4-.09.49-2.27,1.15-3.17.82-6.92-2.5-14.14-1.12-21.19-1.74-3.73-.32-7.54.28-11.31.43A19,19,0,0,0,450.51,120c-1.36,1.21-3.37,1.69-5.09,2.51l-1.22-1c-.21,2.51-.42,5-.54,6.47-6.26,2.3-12.17,3.92-17.54,6.61-5.72,2.85-5.54,8.63-4.13,13.75,1.25,4.56-.28,6.77-4.1,8.56-1.77.83-3.26,2.25-6.08,4.25l9.16,4.14c-.65.45-1.37,1.38-2.14,1.42-7.61.4-11.74,6.54-17.13,10.46-3.45,2.52-6.2,6-9.34,9a10.06,10.06,0,0,1-2.29,1.29c-6.27-4.77-5.24-11.9-6.57-18.16-1.92-9-3.32-18.21-5.54-27.17-1.1-4.48-2-8.52.8-12.61a9.14,9.14,0,0,0,1-3.07c.86-3.68,2.63-5.58,6.69-3.89,4.6,1.92,8.71.33,12.46-2.27a6.92,6.92,0,0,0,2.48-8.85c-2.28-5.57,1.87-9.23,3.7-13.5.81-1.9,8.19.07,10.48,2.63,8.21,9.16,16.44,8.11,22.47-2.84.37-.67.7-1.7,1.27-1.89,10.14-3.37,7.69-13,9.12-20,1.75-8.59,4-12.89,10.59-13,4.75-.07,5.9,1.36,4.75,5.85-.61,2.37.25,3.7,2.8,3.62a11.6,11.6,0,0,0,3.75-.45c5.2-2.11,9.32-1.81,11.08,5.65-.61.46-2.38,1.24-3.15,2.59A5.77,5.77,0,0,0,478,84.7c.39.81,2.73,1.18,4,1a66,66,0,0,0,8.18-2.32A11.56,11.56,0,0,1,500.91,85c1.86,1.25,4.71,1.19,7.13,1.45,3,.32,4.94-.67,4.74-4.21,0-.44,1.33-1.18,2.15-1.42,2.81-.81,5.66-1.56,8.53-2.14,4.69-1,9.4-1.85,14.14-2.56.92-.14,2,.72,3,1s3,1.27,3.37.85c3.18-3.35,5.25-.64,7.45,1.13C557,83.61,562.37,80.91,567.86,79.79Z" transform="translate(-39.48 -45.1)"/><path d="M662.22,142c-7.32,2.84-13.92,5.09-17.66,11.85-1,1.73-2.87,2.94-3.89,4.65-1.13,1.9-2.91,4.49-2.37,6.1a72.49,72.49,0,0,0,6.47,13.47c1.87,3.15,3.61,5.76,4.2,9.86.73,5.05,4.74,9.63,7.31,14.43,2.1,3.93,5.42,6.11,9.58,7.57,4,1.4,6.27,4.4,6.94,8.77.77,5.05,7.84,9.61,12.75,8.16,7.69-2.26,15.32-4.78,22.91-7.36,3.56-1.21,6.1-.86,7.33,3.14.88,2.84,2,5.62,2.87,8.45,1.12,3.52,2.15,7.08,3.34,11-1.12.3-2.73.78-4.36,1.15-6.08,1.36-10.76,4.39-13,10.51a6.26,6.26,0,0,1-1,2.14c-4.45,4.79-5.23,9.56.61,14.27-9.68,6.92-18.82,13.44-27.85,19.88-2.52-4.15-4.89-8.49-7.69-12.52a45.23,45.23,0,0,0-6.8-7.63c-3.15-2.84-7.06-1.82-7.23,2.3a41.5,41.5,0,0,0,2.33,15c2.15,6.17.68,9.08-5.94,9.79a5.5,5.5,0,0,0-3.66,3.19c-2.39,6.84-4.39,13.81-6.55,20.73-.32,1-.74,2-1.1,3-4.9-1.61-10.31-9.44-11.36-14.1a10.83,10.83,0,0,0-5.27-6.59c-6.79-3.13-10-8.73-13.3-14.89-2.6-4.84-6.78-8.81-10.13-13.26a50.49,50.49,0,0,1-3.06-5.19l1.58-1.06c1.2,1.31,2.43,2.6,3.61,3.93,2.46,2.74,4.76,4.87,9.25,4.15,2-.31,5.49,2.32,6.63,4.49,2.53,4.79,3.58,5.51,8.39,2.62,4.82,2.85,9.7.76,10-4.76.33-5.3.75-10.89-.56-15.91-1.75-6.72-5-13.08-7.88-19.46-1.66-3.65-4.36-3.7-6.87-1.08-3.14-5.11-6.14-10.13-9.28-15.05-2.1-3.27-4.27-4.81-8.43-2-3.72,2.52-2.92,4.53-1.08,7.32a3.47,3.47,0,0,1,.45,1.48c-3.93,1.64-7.42,3.34-11.06,4.56-6,2-2.21,7-3.59,10.52-7.92-5-5.22-14.26-9.31-21.52,9.9,3.63,15.77,2.07,21.19-3.7,3.46-3.68,2.49-8.47-3.32-16.79,2.39-.76,4.72-1.06,6.53-2.18a17.5,17.5,0,0,0,5.43-5.05c1.37-2.09,1.86-4.74,2.87-7.53,1,.85,1.35,1.15,1.7,1.39,5.27,3.73,10.07,7.58,13.15,13.77,2,4,12,4.77,15.44,1.83a60.28,60.28,0,0,0,4.61,6.19c2.67,2.83,5.31,5.88,8.56,7.88,2.8,1.73,4.84-.5,5.62-2.21-5.17-4.62-9.55-9.16-14.57-12.82-3.27-2.38-7.39-4.65-11.27-4.92-7.91-.55-10.79-7.64-11.18-16.18,0-.15.18-.4.14-.43-4.29-3.52-3.26-9.31-5.81-13.51-1.38-2.28-3.41-4.16-5.14-6.22l-1.83,1.12q1.78,5.3,3.54,10.57l-7.83,1.73c-.57-2.27-1.08-4.91-1.95-7.42-.37-1-1.41-2.4-2.34-2.56-.75-.14-2.07,1.11-2.63,2.05-1.69,2.79-3.13,5.72-5,9.24l-2.15-6.19-5.43,8.34-1.24-.49a79.68,79.68,0,0,0-1.52-9.94c-.4-1.45-2.17-2.52-3.32-3.76-.62,1.45-1.86,3-1.72,4.35.26,2.55,1.32,5,1.84,7.58-3.89-5.7-5.59-15.82-2.84-23.18,1.79-4.81,1.42-9.08.46-13.77-.41-2,0-6,.63-6.12,2.9-.51,6.53-1,8.9.3,5.28,2.92,4.75,3.1,9-1.59,1.64-1.82,4.92-2.11,7.41-3.21,2.29-1,4.57-2.07,6.76-3.28,1.61-.9,2.92-2.58,4.61-3,3.54-1,5.08-2.84,4.6-6.47a12.58,12.58,0,0,1,.07-3.3c1-7.35,4.56-9.23,10-4.61s10.28,10.42,15.6,15.44c2.37,2.23,5.38,3.77,8,5.78C656.91,137.36,659.52,139.71,662.22,142Z" transform="translate(-39.48 -45.1)"/><path d="M398.66,76.4c.25,1.35,0,3.15.85,3.93,1.28,1.25,4.08,3,4.72,2.47,2.36-1.79,4.17-4.35,6-6.73a27.69,27.69,0,0,0,2.14-3.76,14,14,0,0,1,3.19,2.43c.73,1,.87,2.37,1.27,3.58l1.64-1.63c.24-.19.72-.43.69-.55-1.38-5.71,2.13-7.87,6.37-10.68,5.26-3.49,8-9.44,10.45-15.33A6,6,0,0,1,439.15,47a63.5,63.5,0,0,1,8.17-1.94c1,6.18,5.16,8.18,11.17,5.68a9.83,9.83,0,0,1,5.36-.59c6.31,1.25,12.53,3.07,18.86,4.2,2.82.5,5.83-.07,8.76-.22s5.86-.4,9-.62c.72,4.67,2,8.89-3.39,11.22a4.14,4.14,0,0,0-2,2.56c-1.25,5.15-5.23,7-9.65,8.41-.23-.22-.58-.4-.66-.66-1.91-6.76-5.83-9.67-12.95-7.08-.55.2-2-1.11-2.54-2-4.87-8.73-13.43-7.71-18.54-3.4-3.19,2.68-4,8.49-5.27,13.06s-1.73,9.2-2.61,13.8c-.11.54-.52,1.39-.91,1.47-5.07,1-6.37,5.54-8.91,9a8.8,8.8,0,0,1-14.38-.43c-2.87-4.46-7.69-4.47-11.9-5.91a3.42,3.42,0,0,0-2.22.58c-3.3,1.72-7.72,12.66-6.62,16.26,1.92,6.29-2,10.53-8.8,9.55s-6.79-1-12.06,2c-1.51-3.81-3-7.57-4.76-12-1.3,1.39-2.26,1.94-2.44,2.68-1.93,8.1-9.4,11.44-14.61,16.62-1.45,1.45-5.26,1.24-7.77.72-3.35-.69-6.45-2.49-9.7-3.68-5.67-2.07-8.77.26-8.52,6.38.06,1.39.62,2.76.76,4.17.44,4.35-1.55,6.54-5.91,6.64-8.51.21-12.57,4.29-12.88,13a2.35,2.35,0,0,1-.87,2c-.32-1.67-1-3.38-.87-5,.68-6.54-1.05-9.71-7-12.55a22.21,22.21,0,0,1-5.95-3.64c-1.71-1.64-2.48-3.78.86-5.05a8,8,0,0,0,2.89-2.3c15.1-17.44,34.48-25.58,57.14-28.66C374,99.07,389.07,92.22,398.66,76.4Z" transform="translate(-39.48 -45.1)"/><path d="M116.67,137.6c-6.1-1.84-12.68-2.17-16.92-5.49-6.09-4.76-12-4.25-18.59-3.64-1.16.11-3.2-.72-3.52-1.6-3-8.26-11.53-9.69-17.45-14.29-2.6-2-5.35-3.87-9.22-6.64,0-12.38-.09-26.06.15-39.73,0-1.21,2-2.74,3.39-3.47s3.43-.55,5-1.17c2.12-.84,3.12-2.06,1.85-4.76-1.07-2.28-1-5.11-1.38-7.7,2.9.45,6.23.15,8.6,1.51a50.38,50.38,0,0,1,10,8.22c4.77,4.76,9.42,3.6,11.88-3,5.89-3.33,9.36.67,13,3.9,4.12,3.6,8.19,7.25,12.83,11.38-.47,2.73-5,6.35-.1,10-4.58,3.47-4.64,4.19-1.12,8.24a10.81,10.81,0,0,1,1.47,2.39c2.13,4.47,5.41,6.28,11.41,3.88-.66,3.88-1.17,6.9-1.65,9.78l-4.59-4c-1.46,1.77-3.71,3.33-4.23,5.34-1,4-3.69,5.9-7,7.65-1.37.73-2.26,2.36-3.37,3.57a44.34,44.34,0,0,0,3.83,3.19,21.27,21.27,0,0,0,3.08,1.15c4.69,2.13,5.68,4.35,4.23,9.31C117.77,133.64,117.23,135.6,116.67,137.6Z" transform="translate(-39.48 -45.1)"/><path d="M352.28,239.09c.59,1,1.64,2.08,1.93,3.36,1.61,7,6.55,11.18,11.91,15.24,10.46,7.92,18.44,18,24.62,29.5a26,26,0,0,1,2.12,4.74c1.12,3.76-.84,6.62-4.69,7.37-5.81,1.13-11.59,2.45-17.42,3.46a10.69,10.69,0,0,1-4.62-.57c-7.91-2.3-16.45,4.84-15.43,12-6,10.17-15.87,9.2-24.05,10-2.77-3-5.71-5.16-7.12-8-3.51-7.15-8.69-13.85-8-22.45.11-1.34,1.57-2.61,2.51-3.83,2.19-2.86,4.37-5.75,6.72-8.48a28.72,28.72,0,0,1,5.27-5.07c4.5-3.08,5.78-7.11,3.4-12.12-1.33-2.79-1.67-5.35,1.11-7.6a8.43,8.43,0,0,0,2.68-3.25c1.95-5.17,5.38-7.29,11-7.84C346.93,245.22,349.29,241.6,352.28,239.09Z" transform="translate(-39.48 -45.1)"/><path d="M711.67,215.4c-4.8,1.29-8.64,2.16-12.36,3.38a24.29,24.29,0,0,0-6.65,3.19,11,11,0,0,1-17.23-5.82,13.53,13.53,0,0,0-8.71-9.35C660,204.3,657.37,198.24,654,193c-1.47-2.26-1.22-5.6-1.92-8.4a16.11,16.11,0,0,0-1.74-4.28c-2.78-4.72-5.87-9.25-8.4-14.09a5.49,5.49,0,0,1,.58-5c4.38-4.76,7.41-10.79,13.8-13.73,3.09-1.43,5.36-2.11,8.06.3,5.73,5.14,11.78,9.89,14.87,17.39.72,1.74,3,3.25,5,4,3.08,1.19,4.15,2.64,3.32,6-1.44,5.8-1.09,5.76,4.88,7.33a7.18,7.18,0,0,1,4.22,3.87c1.24,3.18,1.7,6.67,2.4,10,.89,4.34,1.6,8.29,6.74,10.43C708.22,207.88,709.42,212,711.67,215.4Z" transform="translate(-39.48 -45.1)"/><path d="M310,225.68l-3.74-.5c.49-3.27,2.15-3.59,4.95-3.39,3.92.3,7.91-.18,11.87-.33.77,0,2-.4,2.22-.1,3.36,5.62,12.68,3.42,14.57,11.19.3,1.26,3.07,1.81,4.51,2.93,1.1.85,2.88,2.52,2.63,3.06-.74,1.66-2.39,4.25-3.54,4.17-6.92-.47-10.46,3.24-12.76,9a2.53,2.53,0,0,1-.75,1.18c-5.66,3.91-5.83,8.54-2.57,14.24.65,1.14-.82,4-2,5.57-2.75,3.47-6.32,6.34-8.89,9.92-5,7-11.13,7.51-16.09.38-3.55-5.11-6.21-10.84-9.27-16.29a20.9,20.9,0,0,0-2.17-3.59c-1.16-1.32-3.57-2.28-3.74-3.6a38.94,38.94,0,0,1,.38-10.33c.16-1,1.83-1.93,2.95-2.67,7.23-4.83,9.18-8.58,8.25-17Z" transform="translate(-39.48 -45.1)"/><path d="M648.64,112.33a41.58,41.58,0,0,1,5.07,6c2,3.25,2.7,7.48,5.15,10.22,4.4,4.92,9.73,9,14.58,13.52,2.51,2.34,6.29,4.57,6.9,7.41,1.41,6.47,6.42,7.49,11.06,9.44a12,12,0,0,0,3.2.44c-.88,3.55-1.71,6.94-2.46,10-9.93-1.56-11.79-10.46-17.15-15.77-4.27-4.24-9.35-7.94-11.33-14.08a2.88,2.88,0,0,0-.93-1.05c-10.78-9.49-21.33-19.25-32.44-28.34-5-4.1-11.14-6.85-17.55-10.68,0,.06,0-1.14,0-2.33-.18-4-1.91-5.14-5.65-3.94-5,1.61-8.19.29-10.3-4.44-1.25-2.77-2.76-3.19-5.58-1.87-5.11,2.39-7.4,1-11.11-3.15-3.16-3.48-7.52-5.94-11.56-8.52-.71-.45-2.52.65-3.73,1.22-4.35,2.09-8.43,3-12.73-.52-2.68-2.16-5.6-5.85-9.63-1.76-2.85-2.41-5.69-1-8.76-.36-4.51,1-9.59.17-13.68,1.89-3.76,1.6-9.39.8-11.11,6.52-.23.76-4,1.56-4.9.83-7.16-5.6-14.35-2.76-21.61-.68a9.33,9.33,0,0,1-1.94,0c4.2-2.21,8.05-3.93,11.56-6.19,1.95-1.26,4.08-3.15,4.79-5.21,1.31-3.82,3.89-5.66,7.37-5.38,6.07.49,12.62-2,18.16,3,1.23,1.11,4.42.85,6.38.21,8.55-2.75,16.92-1.87,25.43.11,2.12.5,4.54-.42,6.8-.32a24.15,24.15,0,0,1,7.12,1.12c7.89,2.94,15.67,6.18,23.5,9.29,5.52,2.19,11.35,3.81,16.49,6.67,6.25,3.47,13.49,4.22,19.28,9.58a93.55,93.55,0,0,1,11.92,13,13.12,13.12,0,0,0,4.24,3.67C644.58,112.46,646.18,112.15,648.64,112.33Z" transform="translate(-39.48 -45.1)"/><path d="M621.39,280.77c-2.38-5.6-5.12-7.19-12.53-7a4.3,4.3,0,0,1-3.13-1.55c-2.88-4.06-5.6-8.23-8.23-12.46a54.68,54.68,0,0,1-4.89-9c-.89-2.34-1.93-5.95-.81-7.44a12.1,12.1,0,0,1,7.85-4.22c6.18-.56,6.9-1.06,5.56-7.32-.24-1.11.3-2.39.48-3.6,1.25.58,3.07.82,3.66,1.79,3.28,5.41,6.26,11,9.67,17.09l5.83-2.34c1.06,3.09,2,6.19,3.18,9.2,1.13,2.83,3.22,5.47,3.63,8.37a133.74,133.74,0,0,1,1,17.69c0,.57-2.3,1.61-3.55,1.65C626.84,281.69,624.58,281.16,621.39,280.77Z" transform="translate(-39.48 -45.1)"/><path d="M249.05,144.26c-10.57-.88-20.82-1.55-31-2.71a11.85,11.85,0,0,1-6.95-3.44c-6.53-7.32-12.53-15.12-19-22.51-2-2.3-4.66-5.12-7.31-5.48-4.15-.58-5.9-2.89-7.78-5.93-.66-1.07-2.16-1.6-3.27-2.38l-1.09,1.71c4.64,3.89,9.62,7.45,13.73,11.85,1.53,1.63,1.46,5.28,1.18,7.9-.11,1-3,2.58-4.4,2.34-4.08-.73-8-2.24-12-3.45.05.52.11,1,.16,1.56-3.13.59-6.27,1.16-9.4,1.77-.72.14-1.73.12-2.08.59-2.81,3.71-6.78,3.69-10.76,3.61-3.37-.07-6.25.42-7.47,4.36a3.78,3.78,0,0,1-2.73,2c-.64.07-1.86-1.26-2.11-2.17-.88-3.2-4.33-5.85-2.1-9.83.18-.33-1-1.84-1.85-2.3-2.75-1.51-5.62-2.81-8.46-4.15-4.33-2-4.68-3.44-1.88-7.6,1.83-2.71,1.83-2.71-.51-3.69l-10,10.74c13.4,2.63,11,11.93,7.14,22.38,5.69,1.09,10.5,2.63,15.36,2.82,8,.32,10.14,1.94,10.46,10a12.8,12.8,0,0,1-.23,3.82c-2.06,7.61.85,16-3.59,23.24-.18.29.15.9.36,2,2.14-.35,4.41-.28,6.28-1.13,3.52-1.62,5.68-.37,7.47,2.61,1.07,1.78,2.26,3.48,3.29,5.28,1.6,2.8.67,8.43,6.75,6.1,3.33,4.24,7.78,2.06,11.82,2.09,2.14,0,3.55,0,4.43,2.87,1.9,6.11,7.44,6.8,11.75,2,.68-.76,2.6-1.49,3.12-1.1,4.05,3.09,4.75-.58,6.68-2.81,2.37-2.74,5.17-5.49,8.35-7,2.46-1.2,3.41-2.22,3.26-4.83-.06-.93-.09-1.87-.14-2.8l1.46-6,.45,0c.9-4.3,1.8-8.59,2.91-13.91,8.2,6.67,19.22,3.18,26.75,10.59,2,1.92,5.68,2,8.59,2.9C247.18,166,252.48,154,249.05,144.26Z" transform="translate(-39.48 -45.1)"/><path d="M317.93,318.89c-.84-.88-2.5-1.25-2.9-2.22-2.19-5.33-5.1-10.64-5.85-16.22-.85-6.31-2.3-11.13-8.94-13.07a3.46,3.46,0,0,1-1.68-1.6c-3.51-5.93-6.92-11.92-10.44-17.85-.58-1-1.52-2.49-2.32-2.51-4.06-.09-4-2.92-4-5.62-.07-2.36.25-4.73.14-7.09-.19-4.11.8-6.93,5.08-9,5.8-2.79,8.19-7.48,6.64-11.57-1.27-3.33.06-4.34,2.78-5.61,4.3-2,8.34-4.53,12.52-6.85-2.72-4.6-2.68-4.58-.59-9.07,2.45-5.25,4.49-10.48.14-15.88-.94-1.18-1.19-2.9-1.82-4.35-1.54-3.52-3-7.1-4.71-10.54-1.3-2.6-2.94-5-4.51-7.68a21.84,21.84,0,0,1,1.85-1.54c5.4-3.6,9.5-7.73,6.73-15a4.07,4.07,0,0,1,.2-2.76c2.07-4.82-.89-7.11-4.58-8.64-5.05-2.1-9.16-4.92-10.31-10.47-10.17,3.15-19.69,6.17-29.26,9-1.94.58-4.24.14-6,.94-1.36.6-3.26,2.62-3.07,3.67,1.85,10.2-2.12,21.78,6.54,29.18l-5.68,3.66a6.68,6.68,0,0,0-1.93-.78c-7.57-1.88-13.27-9.17-22.09-7.71-.72.12-1.57-1-2.44-1.31-1.71-.65-3.47-1.16-5.49-1.82-1.14,3.88-1.56,7.65-3.32,10.63-2.05,3.45-2.06,6.54-1.55,10.3.42,3.05,1,6.3,1.29,9.44l-5.19,15c-9.2,4.78-5.77,14.8-9.58,21.78,4.17,2,5.82,9,2.22,12.63a27.17,27.17,0,0,1,4.47,3.27c.79.84,1.59,2.88,1.15,3.47-2.53,3.39-.67,5.87.68,7.73l9.65,2.34c-1.41,2.1-2.18,3.27-2.44,3.66,3.84,1.61,7.3,3.28,10.9,4.54,6.15,2.16,13.08,1.76,18.61,6.06,1.91,1.48,3.65.81,3.72-2,0-1.24,0-2.49,0-3.77-4.11-.53-6.43-2.45-5.93-6.58s3.38-3,6.08-2.61c3,.4,3.62-1.91,2.83-4-1-2.7-3.11-5-4.16-7.7-.56-1.41.1-3.29.21-5,1.07.22,2.35.14,3.17.71,2.4,1.71,4.62,3.68,6.05,4.83l10.85-7.87a58.65,58.65,0,0,0,.73,6,9.5,9.5,0,0,0,1.54,2.91c.61.91,2.12,2.14,1.93,2.48a7.73,7.73,0,0,1-2.89,2.66,37,37,0,0,1-5.15,1.87l6.67,3.92c.69,2.24.76,4.24,1.78,5.45,1.95,2.32,2.28,3.9-1.21,4.92,5.07,5.59,11.44,10.12,8.81,18.74,3.87,3.72,4.12,8.74,5.63,13.48,1.21,3.79,2,6.47,0,9.94-1.37,2.35-1.38,4.39.89,7,3,3.44,6.29,1.94,9.46,2.33,7.41.93,14.65,0,23-2.69C320.77,322.17,319.44,320.44,317.93,318.89Z" transform="translate(-39.48 -45.1)"/><path d="M381.8,178.62c-1.56-12.8-3-25.55-7.34-37.81a13.52,13.52,0,0,1,1.15-12.25,5,5,0,0,0-.07-4.11,41.54,41.54,0,0,0-4-5.65c-4.07,3.72-8.49,7.28-12.33,11.38-4.21,4.51-8.64,5-14,2.57-3.65-1.69-7.48-3-12.42-4.94,0,2.95-.25,4.91.05,6.79,1.31,8.41-1.95,11.92-10.56,11.93a7.72,7.72,0,0,0-5.59,3.06c-1.42,2.25-1.47,5.32-2.37,7.95a25.9,25.9,0,0,1-3,6.62,36.53,36.53,0,0,1-5.49,5.49c-1.46,1.33-3.07,2.48-4.06,3.27,3.19,7,5.9,14.54,9.93,21.29,3.43,5.74,2.48,10.73.16,16.09-2.15,5,.85,9.48,6.24,9.26,2.64-.11,5.41-.61,7.89,0,3.55.86,6.88,2.59,11,4.22,0-2.47.38-4-.07-5.22a9.42,9.42,0,0,1,.37-7.69l5.37-6.07,6.25-5.39c14.88,2.47,26.87-2.11,37.23-10.24C384.66,185.67,382.24,182.26,381.8,178.62Z" transform="translate(-39.48 -45.1)"/></g></svg>