<svg id="b95e7c36-c05c-440f-9bc4-51714dc46f05" data-name="mapa , b.t" xmlns="http://www.w3.org/2000/svg" xmlns:xlink="http://www.w3.org/1999/xlink" viewBox="0 0 153.59 172.33"><defs><style>.f3d3ae91-378a-4a7e-b5db-17f31d457794{fill:none;}.ee1a3a72-f9bd-463e-8b65-9900f464f675{clip-path:url(#ba0ccc24-c3e4-4b9f-b02a-68adfecabbdb);}</style><clipPath id="ba0ccc24-c3e4-4b9f-b02a-68adfecabbdb"><path class="f3d3ae91-378a-4a7e-b5db-17f31d457794" d="M128.75,97.71c-2.25-18.53-4.4-37-10.63-54.75-2.1-6-1.93-12,1.67-17.74.91-1.45.72-4.3-.1-5.95-1.45-2.94-3.76-5.45-5.75-8.19-5.89,5.39-12.29,10.55-17.85,16.49-6.1,6.52-12.52,7.3-20.29,3.71C70.51,28.84,65,27,57.82,24.13c0,4.28-.37,7.12.06,9.83,1.9,12.18-2.82,17.26-15.29,17.29a11.15,11.15,0,0,0-8.1,4.43c-2.05,3.26-2.12,7.7-3.42,11.5-1.13,3.32-2.33,6.78-4.33,9.59-2.13,3-5.16,5.44-7.94,8-2.11,1.92-4.45,3.59-5.89,4.73,4.63,10.15,8.56,21.06,14.39,30.83,5,8.31,3.59,15.55.23,23.3-3.11,7.21,1.24,13.73,9,13.41,3.82-.15,7.84-.89,11.43,0,5.13,1.25,10,3.76,15.89,6.12,0-3.58.55-5.79-.09-7.56a13.67,13.67,0,0,1,.53-11.15l7.77-8.78,9.05-7.81c21.56,3.59,38.91-3.06,53.93-14.82C132.89,107.92,129.39,103,128.75,97.71Z"/></clipPath></defs><g class="ee1a3a72-f9bd-463e-8b65-9900f464f675"><image width="1376" height="768" transform="translate(-107.58 -1.85) scale(0.25 0.25)" xlink:href="../../Downloads/Gemini_Generated_Image_n5hf0pn5hf0pn5hf.png"/></g></svg>