<svg xmlns="http://www.w3.org/2000/svg" viewBox="0 0 84.36 104.98"><g id="a3b8c988-1984-46c4-8420-63d2c2bf3ea0" data-name="mapa , b.t"><path d="M86.73,63.78C85.17,51,83.69,38.23,79.39,26a13.52,13.52,0,0,1,1.15-12.25,4.92,4.92,0,0,0-.07-4.11A41.54,41.54,0,0,0,76.5,4C72.43,7.68,68,11.24,64.18,15.34c-4.22,4.51-8.65,5-14,2.57-3.65-1.69-7.47-3-12.41-4.94a51.2,51.2,0,0,0,0,6.79c1.31,8.41-1.95,11.92-10.56,11.93a7.73,7.73,0,0,0-5.59,3.06c-1.42,2.25-1.47,5.32-2.36,8a25.59,25.59,0,0,1-3,6.62,36.93,36.93,0,0,1-5.48,5.49c-1.46,1.33-3.08,2.48-4.07,3.27,3.19,7,5.9,14.54,9.93,21.29,3.43,5.74,2.48,10.73.16,16.09-2.15,5,.86,9.48,6.24,9.26,2.64-.11,5.41-.61,7.9,0,3.54.86,6.87,2.59,11,4.22,0-2.47.38-4-.07-5.22A9.42,9.42,0,0,1,42.24,96L47.61,90l6.25-5.39c14.88,2.48,26.87-2.11,37.24-10.24C89.59,70.83,87.17,67.42,86.73,63.78Z" transform="translate(-6.74 -3.96)"/></g></svg>