<svg xmlns="http://www.w3.org/2000/svg" viewBox="0 0 767 404"><defs><style>.b263d8b6-545a-4f4e-ba98-63ce3e68d62f,.b43d98c2-0e66-4edc-b076-7f0f84bad554,.b599700a-7da0-47c3-85e5-bc7a0a936675,.b65544e9-2d94-44a4-9924-8a8eb23e6026,.b84f5045-aa6c-499c-8969-7b4bf24a4e00,.bd390d35-207d-4f46-a960-9c3d18cf5077,.f0321b7d-96a1-4eef-ab30-af3a74100c9e,.f3e12e4b-ae0b-46a2-9ccb-671a1d27170d,.f5ea25dd-bd0d-4418-b4cf-561b47d201df,.fb27f8e4-760d-4635-b413-2a674c6920c5{font-size:12px;font-family:TangoSans_Italic, TangoSans;}.bd390d35-207d-4f46-a960-9c3d18cf5077{fill:#8c2b27;}.a07f78c4-e8e2-4371-a353-a3e1697d9ee5{letter-spacing:-0.06em;}.afb3c8d0-11c0-4e5e-9fd9-fd307036a8e2,.b599700a-7da0-47c3-85e5-bc7a0a936675{fill:#44201e;}.a0b514bb-0705-46f2-8958-ca9e8e7a786e,.b84f5045-aa6c-499c-8969-7b4bf24a4e00{fill:#182b28;}.a37f0d43-35c0-4402-9910-687903440e74{fill:#5cb7ac;}.f7b28f0a-3740-42e0-a56e-2e3757bbbd59{fill:#5c360f;}.a2ebd2df-50c5-48b1-8b64-4ae2bbe2e47d,.b263d8b6-545a-4f4e-ba98-63ce3e68d62f{fill:#2a3226;}.e90b8946-7cdd-46ec-bcc4-656e9ea32480{fill:#415880;}.fb27f8e4-760d-4635-b413-2a674c6920c5{fill:#9b7702;}.abc4eab3-879c-4b5b-ba63-c67aab65cc3e{fill:#548eb9;}.f3e12e4b-ae0b-46a2-9ccb-671a1d27170d{fill:#0071ab;}.e53625ed-be12-4bf8-8237-c67891bc5596{letter-spacing:-0.04em;}.f0321b7d-96a1-4eef-ab30-af3a74100c9e{fill:#102550;}.f5ea25dd-bd0d-4418-b4cf-561b47d201df{fill:#392661;}.b43d98c2-0e66-4edc-b076-7f0f84bad554{fill:#038488;}.ffccdd24-daa0-4c64-9acc-fb814d2d3b4f{letter-spacing:-0.05em;}.b65544e9-2d94-44a4-9924-8a8eb23e6026{fill:#140701;}.a51cf3e1-ad5b-4837-b821-430bb19e2f10{letter-spacing:-0.11em;}.bb41467c-cfbf-46f5-aac7-ae6012219097{fill:#8a6202;}.e1049417-98d8-4487-9372-97b5c1d70bae{fill:#006ba3;}.a884bcd2-627e-4a5e-80e3-7755fcc5c375{fill:#5d4889;}.e8c1391c-5c5b-4926-9222-ee6818c48861{fill:#343833;}.e2e7dbda-2130-4037-b2b7-167cc0cad5ac{fill:#311409;}</style></defs><g id="b7ee54a4-2043-4f3a-8b48-654946f7b90e" data-name="Capa 2"><text class="bd390d35-207d-4f46-a960-9c3d18cf5077" transform="translate(145.19 75.96)">Bocas del <tspan class="a07f78c4-e8e2-4371-a353-a3e1697d9ee5" x="58.97" y="0">T</tspan><tspan x="65.05" y="0">oro</tspan></text><polygon class="afb3c8d0-11c0-4e5e-9fd9-fd307036a8e2" points="340.27 250.07 423.77 251.07 340.27 252.07 340.27 250.07"/><polygon class="a0b514bb-0705-46f2-8958-ca9e8e7a786e" points="401.09 210.43 400.78 232.52 400.17 231.91 443.27 232.8 400.16 233.13 399.56 233.14 399.55 232.52 399.24 210.43 401.09 210.43"/><polygon class="a37f0d43-35c0-4402-9910-687903440e74" points="436.79 162.43 436.62 181.53 435.73 180.65 537.27 181.78 435.73 182.42 434.85 182.43 434.84 181.53 434.68 162.43 436.79 162.43"/><polygon class="f7b28f0a-3740-42e0-a56e-2e3757bbbd59" points="141.77 131.93 142.16 64.93 142.16 64.32 142.77 64.32 246.77 64.93 142.77 65.54 143.37 64.93 143.77 131.93 141.77 131.93"/><polygon class="a2ebd2df-50c5-48b1-8b64-4ae2bbe2e47d" points="584.77 123.93 584.5 147.93 584.49 148.67 583.77 148.66 517.77 147.93 583.77 147.2 583.03 147.93 582.77 123.93 584.77 123.93"/><polygon class="e90b8946-7cdd-46ec-bcc4-656e9ea32480" points="442.3 72.43 442.66 45.43 443.3 46.07 396.27 45.43 443.3 44.8 443.93 44.79 443.93 45.43 444.3 72.43 442.3 72.43"/><text class="fb27f8e4-760d-4635-b413-2a674c6920c5" transform="translate(56.69 264.99)">Chiriquí</text><path class="abc4eab3-879c-4b5b-ba63-c67aab65cc3e" d="M253.79,232.75l1,1.17-1.68,1.59-.94-1Z"/><text class="f3e12e4b-ae0b-46a2-9ccb-671a1d27170d" transform="translate(233.74 348.09)"><tspan class="a07f78c4-e8e2-4371-a353-a3e1697d9ee5">V</tspan><tspan x="8.08" y="0">e</tspan><tspan class="e53625ed-be12-4bf8-8237-c67891bc5596" x="15.13" y="0">r</tspan><tspan x="19.09" y="0">aguas</tspan></text><text class="f0321b7d-96a1-4eef-ab30-af3a74100c9e" transform="translate(406.14 57.39)">Colón</text><text class="f5ea25dd-bd0d-4418-b4cf-561b47d201df" transform="translate(404.92 341.6)">Los San<tspan class="e53625ed-be12-4bf8-8237-c67891bc5596" x="44.67" y="0">t</tspan><tspan x="49.39" y="0">os</tspan></text><text class="b599700a-7da0-47c3-85e5-bc7a0a936675" transform="translate(366.52 247.98)">Herre<tspan class="e53625ed-be12-4bf8-8237-c67891bc5596" x="31.26" y="0">r</tspan><tspan x="35.22" y="0">a</tspan></text><text class="b84f5045-aa6c-499c-8969-7b4bf24a4e00" transform="translate(402.27 229.98)">Coclé</text><text class="b43d98c2-0e66-4edc-b076-7f0f84bad554" transform="translate(447.16 178.8)"><tspan class="ffccdd24-daa0-4c64-9acc-fb814d2d3b4f">P</tspan><tspan x="6.36" y="0">anamá Oes</tspan><tspan class="e53625ed-be12-4bf8-8237-c67891bc5596" x="72.75" y="0">t</tspan><tspan x="77.47" y="0">e</tspan></text><text class="b263d8b6-545a-4f4e-ba98-63ce3e68d62f" transform="translate(528.59 145.1)"><tspan class="ffccdd24-daa0-4c64-9acc-fb814d2d3b4f">P</tspan><tspan x="6.36" y="0">anamá</tspan></text><text class="b65544e9-2d94-44a4-9924-8a8eb23e6026" transform="translate(626.59 207.1)">Darién</text><text class="b43d98c2-0e66-4edc-b076-7f0f84bad554" transform="translate(655.52 59.18)">Guna <tspan class="a51cf3e1-ad5b-4837-b821-430bb19e2f10" x="34.1" y="0">Y</tspan><tspan x="41.66" y="0">ala</tspan></text><polygon class="bb41467c-cfbf-46f5-aac7-ae6012219097" points="56.55 198.25 55.12 267.75 54.66 267.29 102.87 268.03 54.66 268.21 54.2 268.21 54.2 267.74 54.29 198.22 56.55 198.25"/><polygon class="e1049417-98d8-4487-9372-97b5c1d70bae" points="232.15 276.35 232.12 352.08 231.63 351.6 300.5 351.37 231.64 352.56 231.17 352.56 231.16 352.08 230.15 276.37 232.15 276.35"/><polygon class="a884bcd2-627e-4a5e-80e3-7755fcc5c375" points="403.92 311.93 403.4 344.14 402.12 342.85 482.27 344.14 402.12 345.43 400.85 345.45 400.83 344.14 400.31 311.93 403.92 311.93"/><polygon class="e8c1391c-5c5b-4926-9222-ee6818c48861" points="653.27 79.43 653.57 48.43 653.58 47.73 654.27 47.74 724.27 48.43 654.27 49.13 654.96 48.43 655.27 79.43 653.27 79.43"/><polygon class="e2e7dbda-2130-4037-b2b7-167cc0cad5ac" points="665.59 214.43 665.84 196.43 666.59 197.18 614.27 196.43 666.59 195.69 667.32 195.68 667.33 196.43 667.59 214.43 665.59 214.43"/></g></svg>